<svg viewBox="0 0 44.08 44.08" xmlns="http://www.w3.org/2000/svg"><defs><style>.cls-1{fill:#022a3a;}</style></defs><title>Design</title><g id="Layer_2" data-name="Layer 2"><g id="Layer_1-2" data-name="Layer 1"><rect class="cls-1" x="20.28" width="3.53" height="3.53"></rect><rect class="cls-1" x="14.1" width="3.53" height="3.53"></rect><rect class="cls-1" x="26.45" width="3.53" height="3.53"></rect><rect class="cls-1" x="40.55" y="26.43" width="3.53" height="3.53"></rect><path class="cls-1" d="M39.67,0H32.62V3.53h7.05a.89.89,0,0,1,.88.88v7h3.53v-7A4.42,4.42,0,0,0,39.67,0Z"></path><rect class="cls-1" x="40.55" y="14.09" width="3.53" height="3.53"></rect><rect class="cls-1" x="14.1" y="40.55" width="3.53" height="3.53"></rect><rect class="cls-1" x="40.55" y="20.26" width="3.53" height="3.53"></rect><rect class="cls-1" y="26.43" width="3.53" height="3.53"></rect><path class="cls-1" d="M3.53,39.67V32.6H0v7.07a4.42,4.42,0,0,0,4.41,4.41h7.05V40.55H4.41A.89.89,0,0,1,3.53,39.67Z"></path><rect class="cls-1" y="14.09" width="3.53" height="3.53"></rect><rect class="cls-1" x="20.28" y="40.55" width="3.53" height="3.53"></rect><path class="cls-1" d="M40.55,39.67a.89.89,0,0,1-.88.88H32.62v3.53h7.05a4.42,4.42,0,0,0,4.41-4.41V32.6H40.55Z"></path><rect class="cls-1" x="26.45" y="40.55" width="3.53" height="3.53"></rect><path class="cls-1" d="M3.53,4.41a.89.89,0,0,1,.88-.88h7.05V0H4.41A4.42,4.42,0,0,0,0,4.41v7H3.53Z"></path><rect class="cls-1" y="20.26" width="3.53" height="3.53"></rect></g></g></svg>