<svg width="119" height="119" xmlns="http://www.w3.org/2000/svg">

 <g class="currentLayer">
  <title>Layer 1</title>
  <g id="svg_8">
   <rect fill="#000" id="svg_9" height="83.579002" width="83.581001" y="17.072998" x="17.068"/>
   <rect fill="#000" id="svg_10" height="9.417" width="9.417" y="0.000992" x="54.151998"/>
   <rect fill="#000" id="svg_11" height="9.417" width="9.414" y="0.000992" x="37.673001"/>
   <rect fill="#000" id="svg_12" height="9.417" width="9.417" y="0.000992" x="70.632001"/>
   <rect fill="#000" id="svg_13" height="9.414" width="9.418" y="70.60199" x="108.302999"/>
   <path fill="#000" id="svg_14" d="m105.95,0.001l-18.836,0l0,9.417l18.835,0c1.274,0 2.354,1.081 2.354,2.354l0,18.801l9.418,0l0,-18.801c0.001,-6.475 -5.298,-11.771 -11.771,-11.771z"/>
   <rect fill="#000" id="svg_15" height="9.417" width="9.418" y="37.634003" x="108.302999"/>
   <rect fill="#000" id="svg_16" height="9.416" width="9.414" y="108.303009" x="37.673001"/>
   <rect fill="#000" id="svg_17" height="9.419" width="9.418" y="54.115997" x="108.302999"/>
   <rect fill="#000" id="svg_18" height="9.414" width="9.416" y="70.60199" x="0.000001"/>
   <path fill="#000" id="svg_19" d="m9.416,105.947l0,-18.871l-9.416,0l0,18.871c0,6.477 5.296,11.771 11.769,11.771l18.838,0l0,-9.416l-18.838,0c-1.274,0.001 -2.353,-1.079 -2.353,-2.355z"/>
   <rect fill="#000" id="svg_20" height="9.417" width="9.416" y="37.634003" x="0.000001"/>
   <rect fill="#000" id="svg_21" height="9.416" width="9.417" y="108.303009" x="54.151998"/>
   <path fill="#000" id="svg_22" d="m108.303,105.947c0,1.275 -1.08,2.355 -2.354,2.355l-18.835,0l0,9.416l18.835,0c6.473,0 11.772,-5.295 11.772,-11.771l0,-18.871l-9.418,0l0,18.871z"/>
   <rect fill="#000" id="svg_23" height="9.416" width="9.417" y="108.303009" x="70.632001"/>
   <path fill="#000" id="svg_24" d="m9.416,11.771c0,-1.272 1.08,-2.354 2.354,-2.354l18.838,0l0,-9.417l-18.839,0c-6.473,0 -11.769,5.296 -11.769,11.771l0,18.801l9.416,0l0,-18.801z"/>
   <rect fill="#000" id="svg_25" height="9.419" width="9.416" y="54.115997" x="0.000001"/>
  </g>
 </g>
 <g>
  <title>Layer 2</title>
  <rect fill="none" y="0" x="0" height="100%" width="100%" id="backgroundrect"/>
 </g>
 <g>
  <title>background</title>
  <rect fill="none" id="canvas_background" height="121" width="121" y="-1" x="-1"/>
 </g>
</svg>